<svg xmlns="http://www.w3.org/2000/svg" xmlns:inkscape="http://www.inkscape.org/namespaces/inkscape" xmlns:sodipodi="http://sodipodi.sourceforge.net/DTD/sodipodi-0.0.dtd" xmlns:xlink="http://www.w3.org/1999/xlink" width="760.0" height="220.0" viewBox="0 0 760.0 220.0" id="svg9625"><defs><linearGradient x1="0.0" y1="0.0" x2="0.0" y2="1.0" id="linearGradient1374" inkscape:label="basegrad"><stop offset="0.0" style="stop-color:#3b82f6;stop-opacity:1.0"/><stop offset="0.55" style="stop-color:#1e3a8a;stop-opacity:1.0"/><stop offset="1.0" style="stop-color:#0b1736;stop-opacity:1.0"/></linearGradient><clipPath id="clipPath6236" inkscape:label="glyphclip"><path d="M 76.6123 100.672 L 44.3931 112.222 L 76.6123 123.691 V 133.783 L 33.7749 116.964 V 107.399 L 76.6123 90.5398 Z M 108.143 97.3484 Q 109.48 94.471 111.547 93.0931 Q 113.614 91.7151 116.613 91.7151 Q 122.489 91.7151 124.739 95.7679 Q 126.988 99.8206 126.988 112.627 V 138.2 H 117.261 V 109.061 Q 117.261 103.995 116.491 102.293 Q 115.721 100.591 113.695 100.591 Q 111.668 100.591 110.858 102.333 Q 110.047 104.076 110.047 109.061 V 138.2 H 100.442 V 109.061 Q 100.442 104.076 99.6318 102.333 Q 98.8213 100.591 96.7949 100.591 Q 94.7686 100.591 93.9985 102.293 Q 93.2285 103.995 93.2285 109.061 V 138.2 H 83.502 V 92.8094 H 92.1343 V 97.5105 Q 93.1475 94.8357 95.3765 93.2754 Q 97.6055 91.7151 100.361 91.7151 Q 103.117 91.7151 105.387 93.3565 Q 107.656 94.9979 108.143 97.3484 Z M 173.148 135.89 Q 170.149 137.633 166.705 138.504 Q 163.26 139.375 159.288 139.375 Q 148.792 139.375 142.875 133.053 Q 136.958 126.731 136.958 115.545 Q 136.958 104.319 142.915 97.9766 Q 148.873 91.6341 159.369 91.6341 Q 163.017 91.6341 166.401 92.4852 Q 169.785 93.3362 173.148 95.1194 V 105.981 Q 170.555 103.752 167.454 102.556 Q 164.354 101.361 161.031 101.361 Q 155.235 101.361 152.115 105.049 Q 148.994 108.737 148.994 115.545 Q 148.994 122.354 152.115 126.001 Q 155.235 129.649 161.031 129.649 Q 164.476 129.649 167.475 128.494 Q 170.474 127.339 173.148 124.988 Z M 198.032 131.797 V 155.465 H 186.198 V 92.8094 H 198.032 V 99.618 Q 199.896 95.6868 202.936 93.701 Q 205.976 91.7151 210.069 91.7151 Q 217.85 91.7151 222.146 97.9563 Q 226.442 104.198 226.442 115.545 Q 226.442 127.055 222.085 133.215 Q 217.729 139.375 209.664 139.375 Q 206.016 139.375 203.118 137.491 Q 200.221 135.606 198.032 131.797 Z M 214.567 115.464 Q 214.567 108.899 212.379 105.17 Q 210.19 101.442 206.34 101.442 Q 202.49 101.442 200.261 105.17 Q 198.032 108.899 198.032 115.464 Q 198.032 122.03 200.261 125.758 Q 202.49 129.487 206.34 129.487 Q 210.19 129.487 212.379 125.758 Q 214.567 122.03 214.567 115.464 Z M 233.656 100.672 V 90.5398 L 276.493 107.399 V 116.964 L 233.656 133.783 V 123.691 L 265.875 112.222 Z M 320.222 94.2278 V 104.603 Q 316.939 102.495 313.393 101.421 Q 309.847 100.347 306.281 100.347 Q 302.309 100.347 300.283 101.502 Q 298.256 102.658 298.256 104.927 Q 298.256 108.169 306.929 110.196 L 307.375 110.317 L 310.779 111.128 Q 317.264 112.668 320.283 116.092 Q 323.302 119.517 323.302 125.353 Q 323.302 132.364 318.702 135.87 Q 314.103 139.375 304.862 139.375 Q 300.769 139.375 296.473 138.666 Q 292.177 137.957 287.76 136.538 V 126.163 Q 291.691 128.392 295.764 129.568 Q 299.837 130.743 303.646 130.743 Q 307.821 130.743 309.969 129.527 Q 312.117 128.311 312.117 126.001 Q 312.117 123.732 310.597 122.516 Q 309.077 121.3 303.363 119.922 L 300.08 119.193 Q 293.271 117.653 290.151 114.37 Q 287.03 111.087 287.03 105.575 Q 287.03 99.0101 291.772 95.3626 Q 296.514 91.7151 305.105 91.7151 Q 308.956 91.7151 312.785 92.3433 Q 316.615 92.9715 320.222 94.2278 Z M 376.758 92.8094 L 362.33 138.2 H 347.7 L 333.272 92.8094 H 345.309 L 354.995 128.23 L 364.721 92.8094 Z M 412.543 114.775 Q 412.543 108.696 410.233 105.028 Q 407.923 101.361 404.154 101.361 Q 400.426 101.361 398.136 105.008 Q 395.846 108.656 395.846 114.775 Q 395.846 120.935 398.136 124.583 Q 400.426 128.23 404.154 128.23 Q 407.923 128.23 410.233 124.563 Q 412.543 120.895 412.543 114.775 Z M 424.418 134.796 Q 424.418 145.698 419.494 150.541 Q 414.57 155.384 403.506 155.384 Q 399.777 155.384 396.13 154.836 Q 392.482 154.289 388.713 153.155 V 142.253 Q 392.077 144.117 395.562 145.009 Q 399.048 145.9 402.736 145.9 Q 407.761 145.9 410.152 143.529 Q 412.543 141.158 412.543 136.133 V 131.229 Q 410.801 134.471 407.923 136.052 Q 405.046 137.633 400.912 137.633 Q 393.131 137.633 388.551 131.554 Q 383.972 125.474 383.972 115.059 Q 383.972 104.279 388.551 97.9563 Q 393.131 91.6341 400.831 91.6341 Q 404.722 91.6341 407.761 93.4578 Q 410.801 95.2815 412.543 98.6048 V 92.8094 H 424.418 Z M 476.374 100.672 L 444.155 112.222 L 476.374 123.691 V 133.783 L 433.537 116.964 V 107.399 L 476.374 90.5398 Z M 516.375 77.6927 H 525.331 L 493.477 145.9 H 484.52 Z M 557.875 97.3484 Q 559.212 94.471 561.279 93.0931 Q 563.346 91.7151 566.345 91.7151 Q 572.221 91.7151 574.47 95.7679 Q 576.72 99.8206 576.72 112.627 V 138.2 H 566.993 V 109.061 Q 566.993 103.995 566.223 102.293 Q 565.453 100.591 563.427 100.591 Q 561.4 100.591 560.59 102.333 Q 559.779 104.076 559.779 109.061 V 138.2 H 550.174 V 109.061 Q 550.174 104.076 549.364 102.333 Q 548.553 100.591 546.527 100.591 Q 544.5 100.591 543.73 102.293 Q 542.96 103.995 542.96 109.061 V 138.2 H 533.234 V 92.8094 H 541.866 V 97.5105 Q 542.879 94.8357 545.108 93.2754 Q 547.337 91.7151 550.093 91.7151 Q 552.849 91.7151 555.119 93.3565 Q 557.388 94.9979 557.875 97.3484 Z M 622.88 135.89 Q 619.881 137.633 616.437 138.504 Q 612.992 139.375 609.02 139.375 Q 598.523 139.375 592.606 133.053 Q 586.689 126.731 586.689 115.545 Q 586.689 104.319 592.647 97.9766 Q 598.604 91.6341 609.101 91.6341 Q 612.749 91.6341 616.133 92.4852 Q 619.517 93.3362 622.88 95.1194 V 105.981 Q 620.287 103.752 617.186 102.556 Q 614.086 101.361 610.763 101.361 Q 604.967 101.361 601.847 105.049 Q 598.726 108.737 598.726 115.545 Q 598.726 122.354 601.847 126.001 Q 604.967 129.649 610.763 129.649 Q 614.208 129.649 617.207 128.494 Q 620.206 127.339 622.88 124.988 Z M 647.764 131.797 V 155.465 H 635.93 V 92.8094 H 647.764 V 99.618 Q 649.628 95.6868 652.668 93.701 Q 655.708 91.7151 659.801 91.7151 Q 667.582 91.7151 671.878 97.9563 Q 676.174 104.198 676.174 115.545 Q 676.174 127.055 671.817 133.215 Q 667.46 139.375 659.396 139.375 Q 655.748 139.375 652.85 137.491 Q 649.953 135.606 647.764 131.797 Z M 664.299 115.464 Q 664.299 108.899 662.111 105.17 Q 659.922 101.442 656.072 101.442 Q 652.222 101.442 649.993 105.17 Q 647.764 108.899 647.764 115.464 Q 647.764 122.03 649.993 125.758 Q 652.222 129.487 656.072 129.487 Q 659.922 129.487 662.111 125.758 Q 664.299 122.03 664.299 115.464 Z M 683.388 100.672 V 90.5398 L 726.225 107.399 V 116.964 L 683.388 133.783 V 123.691 L 715.607 112.222 Z" style="fill:#1e3a8a" inkscape:label="txt-copy" id="path2810"/></clipPath><filter x="-50%" y="-50%" width="200%" height="200%" id="filter3958"><feGaussianBlur in="SourceAlpha" stdDeviation="5.0" result="blur"/><feOffset in="blur" dx="2.0" dy="5.0" result="off"/><feFlood flood-color="#0a1530" flood-opacity="0.45" result="color"/><feComposite in="color" in2="off" operator="in" result="shadow"/><feMerge><feMergeNode in="shadow"/><feMergeNode in="SourceGraphic"/></feMerge></filter><filter x="-50%" y="-50%" width="200%" height="200%" id="filter870"><feGaussianBlur in="SourceAlpha" stdDeviation="5.0" result="blur"/><feOffset in="blur" dx="0.0" dy="4.0" result="off"/><feFlood flood-color="#0a1530" flood-opacity="0.5" result="color"/><feComposite in="color" in2="off" operator="in" result="shadow"/><feMerge><feMergeNode in="shadow"/><feMergeNode in="SourceGraphic"/></feMerge></filter><clipPath id="clipPath906" inkscape:label="swooshClip"><path d="M 36 190 C 150 176 340 172 520 174 C 612 175 676 180 712 188 C 676 198 612 204 520 202 C 340 200 150 205 36 190 Z" id="path3489" inkscape:label="swooshClipShape"/></clipPath><linearGradient x1="0.0" y1="0.0" x2="1.0" y2="0.0" id="linearGradient8317" inkscape:label="woodgrad"><stop offset="0.0" style="stop-color:#5b3517;stop-opacity:1.0"/><stop offset="0.5" style="stop-color:#9a5a28;stop-opacity:1.0"/><stop offset="1.0" style="stop-color:#d09650;stop-opacity:1.0"/></linearGradient><clipPath id="clipPath9265" inkscape:label="swooshClip2"><path d="M 26.93 152.26 L 30.67 154.35 L 35.26 157.11 L 40.63 160.43 L 46.68 164.18 L 53.31 168.23 L 60.43 172.46 L 67.93 176.73 L 75.72 180.92 L 83.72 184.91 L 91.85 188.56 L 100.03 191.74 L 108.07 194.28 L 115.92 196.33 L 123.82 198.19 L 131.88 199.85 L 140.1 201.29 L 148.48 202.48 L 157.04 203.42 L 165.77 204.08 L 174.67 204.43 L 183.74 204.45 L 192.99 204.12 L 202.42 203.43 L 212.08 202.33 L 222.03 200.71 L 232.19 198.54 L 242.47 195.91 L 252.83 192.91 L 263.25 189.62 L 273.7 186.11 L 284.14 182.46 L 294.54 178.75 L 304.85 175.04 L 315.04 171.42 L 325.07 167.95 L 335.07 164.65 L 345.31 161.21 L 355.66 157.45 L 365.94 153.54 L 376.14 149.55 L 386.23 145.59 L 396.2 141.73 L 406.02 138.06 L 415.68 134.67 L 425.15 131.62 L 434.4 129.01 L 443.4 126.9 L 452.21 125.35 L 461.06 124.26 L 469.99 123.53 L 478.92 123.15 L 487.84 123.09 L 496.73 123.34 L 505.56 123.88 L 514.33 124.69 L 523.02 125.75 L 531.59 127.04 L 540.04 128.53 L 548.35 130.22 L 556.32 132.03 L 564 134.14 L 571.69 136.76 L 579.51 139.86 L 587.38 143.33 L 595.21 147.07 L 602.95 150.98 L 610.52 154.95 L 617.89 158.89 L 624.99 162.7 L 631.8 166.26 L 638.29 169.5 L 644.31 172.24 L 649.68 174.48 L 654.52 176.4 L 658.95 178.08 L 663 179.54 L 666.69 180.81 L 670.03 181.91 L 673.04 182.86 L 675.74 183.69 L 678.15 184.41 L 680.27 185.04 L 682.13 185.61 L 683.8 186.17 A 11 11 0 0 1 692.2 165.83 L 690.53 165.01 L 688.66 164.08 L 686.63 163.06 L 684.4 161.94 L 681.94 160.7 L 679.22 159.34 L 676.2 157.83 L 672.85 156.16 L 669.14 154.33 L 665.05 152.32 L 660.53 150.11 L 655.69 147.76 L 650.48 145.1 L 644.68 141.96 L 638.26 138.37 L 631.3 134.44 L 623.87 130.29 L 616.05 126.02 L 607.89 121.74 L 599.44 117.56 L 590.74 113.58 L 581.83 109.9 L 572.74 106.64 L 563.68 103.97 L 554.78 101.76 L 545.84 99.75 L 536.69 97.93 L 527.35 96.32 L 517.85 94.96 L 508.19 93.87 L 498.38 93.08 L 488.46 92.61 L 478.42 92.51 L 468.3 92.79 L 458.1 93.49 L 447.79 94.65 L 437.3 96.4 L 426.76 98.77 L 416.25 101.63 L 405.8 104.89 L 395.4 108.46 L 385.05 112.27 L 374.79 116.21 L 364.6 120.22 L 354.52 124.21 L 344.57 128.11 L 334.76 131.82 L 324.93 135.35 L 314.8 139 L 304.49 142.94 L 294.21 147.02 L 283.98 151.18 L 273.84 155.33 L 263.8 159.39 L 253.91 163.28 L 244.2 166.94 L 234.72 170.27 L 225.49 173.22 L 216.57 175.7 L 207.92 177.67 L 199.4 179.19 L 190.94 180.38 L 182.6 181.24 L 174.37 181.8 L 166.24 182.07 L 158.21 182.08 L 150.27 181.84 L 142.42 181.38 L 134.66 180.72 L 126.97 179.87 L 119.36 178.85 L 111.93 177.72 L 104.52 176.27 L 96.84 174.31 L 88.9 171.9 L 80.87 169.15 L 72.88 166.16 L 65.07 163.04 L 57.57 159.9 L 50.5 156.86 L 44 154.01 L 38.17 151.46 L 33.14 149.33 L 29.07 147.74 A 2.5 2.5 0 0 1 26.93 152.26 Z" inkscape:label="swoosh2-copy" style="fill:url(#linearGradient1374);paint-order:stroke;stroke:#b9d2f5;stroke-linejoin:round;stroke-width:3.0" id="path4838"/></clipPath><filter x="-50%" y="-50%" width="200%" height="200%" id="filter4625"><feGaussianBlur in="SourceAlpha" stdDeviation="5.0" result="blur"/><feOffset in="blur" dx="2.0" dy="5.0" result="off"/><feFlood flood-color="#0a1530" flood-opacity="0.4" result="color"/><feComposite in="color" in2="off" operator="in" result="shadow"/><feMerge><feMergeNode in="shadow"/><feMergeNode in="SourceGraphic"/></feMerge></filter><clipPath id="clipPath2900" inkscape:label="swooshClip3"><path d="M 31.79 186.49 L 38.86 187.42 L 47.66 188.65 L 57.96 190.11 L 69.53 191.76 L 82.12 193.53 L 95.51 195.38 L 109.46 197.25 L 123.75 199.09 L 138.13 200.83 L 152.39 202.44 L 166.29 203.84 L 179.57 204.99 L 192.57 205.95 L 205.74 206.84 L 219.09 207.64 L 232.56 208.35 L 246.11 208.97 L 259.72 209.5 L 273.34 209.93 L 286.94 210.26 L 300.47 210.48 L 313.91 210.6 L 327.2 210.61 L 340.35 210.5 L 353.42 210.21 L 366.49 209.73 L 379.49 209.07 L 392.41 208.28 L 405.22 207.39 L 417.93 206.43 L 430.49 205.43 L 442.91 204.42 L 455.14 203.44 L 467.19 202.52 L 479.03 201.69 L 490.69 200.98 L 502.36 200.32 L 514.13 199.64 L 525.89 198.96 L 537.57 198.28 L 549.11 197.63 L 560.43 197.02 L 571.46 196.47 L 582.13 195.98 L 592.37 195.57 L 602.11 195.26 L 611.27 195.07 L 619.75 195 L 627.66 195.09 L 635.2 195.35 L 642.39 195.75 L 649.21 196.27 L 655.65 196.87 L 661.69 197.52 L 667.32 198.2 L 672.52 198.87 L 677.28 199.51 L 681.61 200.09 L 685.5 200.58 L 688.81 200.92 A 9 9 0 0 1 691.19 183.08 L 688.11 182.57 L 684.55 181.89 L 680.37 181.05 L 675.63 180.09 L 670.35 179.05 L 664.56 177.98 L 658.28 176.91 L 651.53 175.88 L 644.33 174.94 L 636.7 174.11 L 628.66 173.46 L 620.25 173 L 611.39 172.72 L 601.97 172.54 L 592.01 172.46 L 581.58 172.47 L 570.74 172.56 L 559.57 172.73 L 548.14 172.97 L 536.5 173.27 L 524.74 173.63 L 512.91 174.05 L 501.09 174.51 L 489.31 175.02 L 477.43 175.63 L 465.35 176.39 L 453.14 177.28 L 440.8 178.25 L 428.36 179.27 L 415.82 180.32 L 403.22 181.37 L 390.56 182.38 L 377.86 183.33 L 365.13 184.19 L 352.4 184.92 L 339.65 185.5 L 326.75 185.96 L 313.64 186.35 L 300.37 186.67 L 286.99 186.93 L 273.53 187.12 L 260.03 187.25 L 246.53 187.33 L 233.07 187.36 L 219.69 187.33 L 206.43 187.27 L 193.32 187.16 L 180.43 187.01 L 167.27 186.78 L 153.46 186.44 L 139.24 186.01 L 124.85 185.5 L 110.52 184.95 L 96.49 184.37 L 83.02 183.78 L 70.33 183.2 L 58.66 182.67 L 48.26 182.19 L 39.36 181.8 L 32.21 181.51 A 2.5 2.5 0 0 1 31.79 186.49 Z" inkscape:label="swoosh3-copy" style="fill:url(#linearGradient1374);paint-order:stroke;stroke:#b9d2f5;stroke-linejoin:round;stroke-width:3.0" id="path9981"/></clipPath><clipPath id="clipPath6591" inkscape:label="svgRegionClip"/><clipPath id="clipPath6858" inkscape:label="swooshClip3b"><path d="M 31.79 186.49 L 38.86 187.42 L 47.66 188.65 L 57.96 190.11 L 69.53 191.76 L 82.12 193.53 L 95.51 195.38 L 109.46 197.25 L 123.75 199.09 L 138.13 200.83 L 152.39 202.44 L 166.29 203.84 L 179.57 204.99 L 192.57 205.95 L 205.74 206.84 L 219.09 207.64 L 232.56 208.35 L 246.11 208.97 L 259.72 209.5 L 273.34 209.93 L 286.94 210.26 L 300.47 210.48 L 313.91 210.6 L 327.2 210.61 L 340.35 210.5 L 353.42 210.21 L 366.49 209.73 L 379.49 209.07 L 392.41 208.28 L 405.22 207.39 L 417.93 206.43 L 430.49 205.43 L 442.91 204.42 L 455.14 203.44 L 467.19 202.52 L 479.03 201.69 L 490.69 200.98 L 502.36 200.32 L 514.13 199.64 L 525.89 198.96 L 537.57 198.28 L 549.11 197.63 L 560.43 197.02 L 571.46 196.47 L 582.13 195.98 L 592.37 195.57 L 602.11 195.26 L 611.27 195.07 L 619.75 195 L 627.66 195.09 L 635.2 195.35 L 642.39 195.75 L 649.21 196.27 L 655.65 196.87 L 661.69 197.52 L 667.32 198.2 L 672.52 198.87 L 677.28 199.51 L 681.61 200.09 L 685.5 200.58 L 688.81 200.92 A 9 9 0 0 0 691.19 183.08 L 688.11 182.57 L 684.55 181.89 L 680.37 181.05 L 675.63 180.09 L 670.35 179.05 L 664.56 177.98 L 658.28 176.91 L 651.53 175.88 L 644.33 174.94 L 636.7 174.11 L 628.66 173.46 L 620.25 173 L 611.39 172.72 L 601.97 172.54 L 592.01 172.46 L 581.58 172.47 L 570.74 172.56 L 559.57 172.73 L 548.14 172.97 L 536.5 173.27 L 524.74 173.63 L 512.91 174.05 L 501.09 174.51 L 489.31 175.02 L 477.43 175.63 L 465.35 176.39 L 453.14 177.28 L 440.8 178.25 L 428.36 179.27 L 415.82 180.32 L 403.22 181.37 L 390.56 182.38 L 377.86 183.33 L 365.13 184.19 L 352.4 184.92 L 339.65 185.5 L 326.75 185.96 L 313.64 186.35 L 300.37 186.67 L 286.99 186.93 L 273.53 187.12 L 260.03 187.25 L 246.53 187.33 L 233.07 187.36 L 219.69 187.33 L 206.43 187.27 L 193.32 187.16 L 180.43 187.01 L 167.27 186.78 L 153.46 186.44 L 139.24 186.01 L 124.85 185.5 L 110.52 184.95 L 96.49 184.37 L 83.02 183.78 L 70.33 183.2 L 58.66 182.67 L 48.26 182.19 L 39.36 181.8 L 32.21 181.51 A 2.5 2.5 0 0 0 31.79 186.49 Z" inkscape:label="swoosh3-copy" style="fill:url(#linearGradient1374);paint-order:stroke;stroke:#b9d2f5;stroke-linejoin:round;stroke-width:3.0" id="path3732"/></clipPath><linearGradient x1="0.0" y1="0.0" x2="0.0" y2="1.0" id="linearGradient7296" inkscape:label="glyphSheen2"><stop offset="0.0" style="stop-color:#ffffff;stop-opacity:0.3"/><stop offset="0.42" style="stop-color:#ffffff;stop-opacity:0.06"/><stop offset="0.62" style="stop-color:#ffffff;stop-opacity:0.0"/></linearGradient><filter x="-50%" y="-50%" width="200%" height="200%" id="filter8896" inkscape:label="wmShadow"><feGaussianBlur in="SourceAlpha" stdDeviation="6" result="b2"/><feOffset in="b2" dx="0" dy="6" result="o2"/><feFlood flood-color="#0a1530" flood-opacity="0.32" result="c2"/><feComposite in="c2" in2="o2" operator="in" result="s2"/><feGaussianBlur in="SourceAlpha" stdDeviation="1.4" result="b1"/><feOffset in="b1" dx="0" dy="1.5" result="o1"/><feFlood flood-color="#081024" flood-opacity="0.55" result="c1"/><feComposite in="c1" in2="o1" operator="in" result="s1"/><feMerge><feMergeNode in="s2"/><feMergeNode in="s1"/><feMergeNode in="SourceGraphic"/></feMerge></filter><filter x="-50%" y="-50%" width="200%" height="200%" id="filter8543" inkscape:label="paintShadow"><feGaussianBlur in="SourceAlpha" stdDeviation="7" result="b2"/><feOffset in="b2" dx="1" dy="7" result="o2"/><feFlood flood-color="#0a1530" flood-opacity="0.3" result="c2"/><feComposite in="c2" in2="o2" operator="in" result="s2"/><feGaussianBlur in="SourceAlpha" stdDeviation="1.6" result="b1"/><feOffset in="b1" dx="0" dy="2" result="o1"/><feFlood flood-color="#081024" flood-opacity="0.5" result="c1"/><feComposite in="c1" in2="o1" operator="in" result="s1"/><feMerge><feMergeNode in="s2"/><feMergeNode in="s1"/><feMergeNode in="SourceGraphic"/></feMerge></filter></defs><g inkscape:label="logo" id="g6179" style="filter:url(#filter8896)"><path d="M 476.374 100.672 L 444.155 112.222 L 476.374 123.691 V 133.783 L 433.537 116.964 V 107.399 L 476.374 90.5398 Z M 516.375 77.6927 H 525.331 L 493.477 145.9 H 484.52 Z M 557.875 97.3484 Q 559.212 94.471 561.279 93.0931 Q 563.346 91.7151 566.345 91.7151 Q 572.221 91.7151 574.47 95.7679 Q 576.72 99.8206 576.72 112.627 V 138.2 H 566.993 V 109.061 Q 566.993 103.995 566.223 102.293 Q 565.453 100.591 563.427 100.591 Q 561.4 100.591 560.59 102.333 Q 559.779 104.076 559.779 109.061 V 138.2 H 550.174 V 109.061 Q 550.174 104.076 549.364 102.333 Q 548.553 100.591 546.527 100.591 Q 544.5 100.591 543.73 102.293 Q 542.96 103.995 542.96 109.061 V 138.2 H 533.234 V 92.8094 H 541.866 V 97.5105 Q 542.879 94.8357 545.108 93.2754 Q 547.337 91.7151 550.093 91.7151 Q 552.849 91.7151 555.119 93.3565 Q 557.388 94.9979 557.875 97.3484 Z M 622.88 135.89 Q 619.881 137.633 616.437 138.504 Q 612.992 139.375 609.02 139.375 Q 598.523 139.375 592.606 133.053 Q 586.689 126.731 586.689 115.545 Q 586.689 104.319 592.647 97.9766 Q 598.604 91.6341 609.101 91.6341 Q 612.749 91.6341 616.133 92.4852 Q 619.517 93.3362 622.88 95.1194 V 105.981 Q 620.287 103.752 617.186 102.556 Q 614.086 101.361 610.763 101.361 Q 604.967 101.361 601.847 105.049 Q 598.726 108.737 598.726 115.545 Q 598.726 122.354 601.847 126.001 Q 604.967 129.649 610.763 129.649 Q 614.208 129.649 617.207 128.494 Q 620.206 127.339 622.88 124.988 Z M 647.764 131.797 V 155.465 H 635.93 V 92.8094 H 647.764 V 99.618 Q 649.628 95.6868 652.668 93.701 Q 655.708 91.7151 659.801 91.7151 Q 667.582 91.7151 671.878 97.9563 Q 676.174 104.198 676.174 115.545 Q 676.174 127.055 671.817 133.215 Q 667.46 139.375 659.396 139.375 Q 655.748 139.375 652.85 137.491 Q 649.953 135.606 647.764 131.797 Z M 664.299 115.464 Q 664.299 108.899 662.111 105.17 Q 659.922 101.442 656.072 101.442 Q 652.222 101.442 649.993 105.17 Q 647.764 108.899 647.764 115.464 Q 647.764 122.03 649.993 125.758 Q 652.222 129.487 656.072 129.487 Q 659.922 129.487 662.111 125.758 Q 664.299 122.03 664.299 115.464 Z M 683.388 100.672 V 90.5398 L 726.225 107.399 V 116.964 L 683.388 133.783 V 123.691 L 715.607 112.222 Z" id="path1767" inkscape:label="txt_mcpR" style="fill:url(#linearGradient1374);paint-order:stroke;stroke:#b9d2f5;stroke-linejoin:round;stroke-width:4.5"/><path d="M 320.222 94.2278 V 104.603 Q 316.939 102.495 313.393 101.421 Q 309.847 100.347 306.281 100.347 Q 302.309 100.347 300.283 101.502 Q 298.256 102.658 298.256 104.927 Q 298.256 108.169 306.929 110.196 L 307.375 110.317 L 310.779 111.128 Q 317.264 112.668 320.283 116.092 Q 323.302 119.517 323.302 125.353 Q 323.302 132.364 318.702 135.87 Q 314.103 139.375 304.862 139.375 Q 300.769 139.375 296.473 138.666 Q 292.177 137.957 287.76 136.538 V 126.163 Q 291.691 128.392 295.764 129.568 Q 299.837 130.743 303.646 130.743 Q 307.821 130.743 309.969 129.527 Q 312.117 128.311 312.117 126.001 Q 312.117 123.732 310.597 122.516 Q 309.077 121.3 303.363 119.922 L 300.08 119.193 Q 293.271 117.653 290.151 114.37 Q 287.03 111.087 287.03 105.575 Q 287.03 99.0101 291.772 95.3626 Q 296.514 91.7151 305.105 91.7151 Q 308.956 91.7151 312.785 92.3433 Q 316.615 92.9715 320.222 94.2278 Z M 376.758 92.8094 L 362.33 138.2 H 347.7 L 333.272 92.8094 H 345.309 L 354.995 128.23 L 364.721 92.8094 Z M 412.543 114.775 Q 412.543 108.696 410.233 105.028 Q 407.923 101.361 404.154 101.361 Q 400.426 101.361 398.136 105.008 Q 395.846 108.656 395.846 114.775 Q 395.846 120.935 398.136 124.583 Q 400.426 128.23 404.154 128.23 Q 407.923 128.23 410.233 124.563 Q 412.543 120.895 412.543 114.775 Z M 424.418 134.796 Q 424.418 145.698 419.494 150.541 Q 414.57 155.384 403.506 155.384 Q 399.777 155.384 396.13 154.836 Q 392.482 154.289 388.713 153.155 V 142.253 Q 392.077 144.117 395.562 145.009 Q 399.048 145.9 402.736 145.9 Q 407.761 145.9 410.152 143.529 Q 412.543 141.158 412.543 136.133 V 131.229 Q 410.801 134.471 407.923 136.052 Q 405.046 137.633 400.912 137.633 Q 393.131 137.633 388.551 131.554 Q 383.972 125.474 383.972 115.059 Q 383.972 104.279 388.551 97.9563 Q 393.131 91.6341 400.831 91.6341 Q 404.722 91.6341 407.761 93.4578 Q 410.801 95.2815 412.543 98.6048 V 92.8094 H 424.418 Z" id="path1627" inkscape:label="txt_svg" style="fill:url(#linearGradient1374);paint-order:stroke;stroke:#0a1733;stroke-linejoin:round;stroke-width:4.5"/><path d="M 76.6123 100.672 L 44.3931 112.222 L 76.6123 123.691 V 133.783 L 33.7749 116.964 V 107.399 L 76.6123 90.5398 Z M 108.143 97.3484 Q 109.48 94.471 111.547 93.0931 Q 113.614 91.7151 116.613 91.7151 Q 122.489 91.7151 124.739 95.7679 Q 126.988 99.8206 126.988 112.627 V 138.2 H 117.261 V 109.061 Q 117.261 103.995 116.491 102.293 Q 115.721 100.591 113.695 100.591 Q 111.668 100.591 110.858 102.333 Q 110.047 104.076 110.047 109.061 V 138.2 H 100.442 V 109.061 Q 100.442 104.076 99.6318 102.333 Q 98.8213 100.591 96.7949 100.591 Q 94.7686 100.591 93.9985 102.293 Q 93.2285 103.995 93.2285 109.061 V 138.2 H 83.502 V 92.8094 H 92.1343 V 97.5105 Q 93.1475 94.8357 95.3765 93.2754 Q 97.6055 91.7151 100.361 91.7151 Q 103.117 91.7151 105.387 93.3565 Q 107.656 94.9979 108.143 97.3484 Z M 173.148 135.89 Q 170.149 137.633 166.705 138.504 Q 163.26 139.375 159.288 139.375 Q 148.792 139.375 142.875 133.053 Q 136.958 126.731 136.958 115.545 Q 136.958 104.319 142.915 97.9766 Q 148.873 91.6341 159.369 91.6341 Q 163.017 91.6341 166.401 92.4852 Q 169.785 93.3362 173.148 95.1194 V 105.981 Q 170.555 103.752 167.454 102.556 Q 164.354 101.361 161.031 101.361 Q 155.235 101.361 152.115 105.049 Q 148.994 108.737 148.994 115.545 Q 148.994 122.354 152.115 126.001 Q 155.235 129.649 161.031 129.649 Q 164.476 129.649 167.475 128.494 Q 170.474 127.339 173.148 124.988 Z M 198.032 131.797 V 155.465 H 186.198 V 92.8094 H 198.032 V 99.618 Q 199.896 95.6868 202.936 93.701 Q 205.976 91.7151 210.069 91.7151 Q 217.85 91.7151 222.146 97.9563 Q 226.442 104.198 226.442 115.545 Q 226.442 127.055 222.085 133.215 Q 217.729 139.375 209.664 139.375 Q 206.016 139.375 203.118 137.491 Q 200.221 135.606 198.032 131.797 Z M 214.567 115.464 Q 214.567 108.899 212.379 105.17 Q 210.19 101.442 206.34 101.442 Q 202.49 101.442 200.261 105.17 Q 198.032 108.899 198.032 115.464 Q 198.032 122.03 200.261 125.758 Q 202.49 129.487 206.34 129.487 Q 210.19 129.487 212.379 125.758 Q 214.567 122.03 214.567 115.464 Z M 233.656 100.672 V 90.5398 L 276.493 107.399 V 116.964 L 233.656 133.783 V 123.691 L 265.875 112.222 Z" id="path4254" inkscape:label="txt_mcpL" style="fill:url(#linearGradient1374);paint-order:stroke;stroke:#b9d2f5;stroke-linejoin:round;stroke-width:4.5"/><g inkscape:label="starsfield" id="g9077" clip-path="url(#clipPath6236)"><g inkscape:label="stars_o" id="g531" style="fill:#fb923c"><circle cx="393.5" cy="123.1" r="1.5" id="circle9154"/><circle cx="562.7" cy="114.2" r="0.8" id="circle1262"/><circle cx="708.6" cy="131.3" r="0.8" id="circle2263"/><circle cx="108.5" cy="107.8" r="1.0" id="circle7258"/><circle cx="122.1" cy="105.4" r="2.4" id="circle886"/><circle cx="698.7" cy="140.0" r="1.8" id="circle9130"/><circle cx="675.5" cy="92.7" r="0.8" id="circle299"/><circle cx="287.1" cy="118.4" r="1.0" id="circle3753"/><circle cx="707.6" cy="79.9" r="2.4" id="circle8842"/><circle cx="79.3" cy="116.5" r="2.4" id="circle9520"/><circle cx="619.6" cy="84.3" r="1.8" id="circle7888"/><circle cx="207.1" cy="79.2" r="1.2" id="circle2719"/><circle cx="698.6" cy="97.8" r="1.0" id="circle3293"/><circle cx="430.0" cy="100.0" r="1.8" id="circle2635"/><circle cx="609.3" cy="96.3" r="2.4" id="circle7548"/><circle cx="309.6" cy="134.3" r="1.8" id="circle8674"/><circle cx="161.5" cy="121.5" r="1.2" id="circle7355"/><circle cx="577.7" cy="80.0" r="1.0" id="circle1497"/><circle cx="163.7" cy="85.2" r="1.0" id="circle560"/><circle cx="509.1" cy="142.0" r="1.2" id="circle2150"/><circle cx="615.7" cy="134.4" r="1.5" id="circle9963"/><circle cx="620.9" cy="147.5" r="2.4" id="circle8681"/><circle cx="69.9" cy="144.8" r="1.5" id="circle7416"/><circle cx="576.8" cy="135.3" r="1.5" id="circle2770"/><circle cx="590.5" cy="99.5" r="0.8" id="circle1608"/><circle cx="277.8" cy="123.0" r="1.8" id="circle5023"/><circle cx="493.1" cy="118.2" r="1.8" id="circle9620"/><circle cx="565.3" cy="146.8" r="0.8" id="circle5284"/><circle cx="61.7" cy="92.1" r="1.5" id="circle7158"/><circle cx="96.5" cy="109.4" r="2.4" id="circle762"/><circle cx="226.7" cy="128.4" r="1.2" id="circle1905"/><circle cx="572.9" cy="119.3" r="2.4" id="circle2468"/><circle cx="61.5" cy="147.4" r="1.2" id="circle7591"/><circle cx="107.5" cy="122.0" r="1.5" id="circle267"/><circle cx="635.7" cy="103.3" r="1.0" id="circle6005"/><circle cx="488.3" cy="92.1" r="2.4" id="circle4470"/><circle cx="69.0" cy="97.3" r="1.5" id="circle6801"/><circle cx="52.9" cy="94.0" r="1.2" id="circle3064"/><circle cx="287.4" cy="85.2" r="1.2" id="circle843"/><circle cx="354.2" cy="135.9" r="0.8" id="circle6917"/><circle cx="710.2" cy="123.9" r="1.5" id="circle822"/><circle cx="219.7" cy="85.8" r="1.2" id="circle8156"/><circle cx="137.4" cy="89.4" r="1.2" id="circle9625"/><circle cx="729.1" cy="97.0" r="1.8" id="circle6388"/><circle cx="708.5" cy="100.5" r="1.5" id="circle7105"/><circle cx="242.4" cy="111.0" r="2.4" id="circle8034"/><circle cx="623.9" cy="128.6" r="1.8" id="circle3215"/><circle cx="264.9" cy="105.8" r="2.4" id="circle7341"/><circle cx="342.4" cy="105.1" r="0.8" id="circle2642"/><circle cx="311.6" cy="133.0" r="2.4" id="circle3223"/><circle cx="357.4" cy="88.4" r="1.5" id="circle1604"/><circle cx="665.6" cy="85.3" r="1.0" id="circle6920"/><circle cx="541.6" cy="80.1" r="1.0" id="circle7447"/><circle cx="659.7" cy="135.3" r="1.5" id="circle8179"/><circle cx="516.1" cy="94.5" r="1.2" id="circle1058"/><circle cx="662.1" cy="99.9" r="1.5" id="circle4763"/><circle cx="619.2" cy="103.1" r="1.5" id="circle4278"/><circle cx="683.9" cy="113.3" r="1.0" id="circle8210"/><circle cx="149.1" cy="132.8" r="1.0" id="circle3266"/><circle cx="51.0" cy="120.1" r="2.4" id="circle937"/><circle cx="343.5" cy="139.9" r="1.2" id="circle1744"/><circle cx="538.0" cy="138.2" r="0.8" id="circle7344"/><circle cx="578.7" cy="131.8" r="1.5" id="circle3355"/><circle cx="170.8" cy="105.2" r="0.8" id="circle3383"/><circle cx="221.8" cy="144.6" r="1.8" id="circle8292"/><circle cx="134.7" cy="143.8" r="1.2" id="circle8683"/><circle cx="196.5" cy="137.0" r="0.8" id="circle6624"/><circle cx="240.0" cy="120.9" r="1.5" id="circle4230"/><circle cx="316.8" cy="111.8" r="2.4" id="circle6425"/><circle cx="473.8" cy="84.7" r="1.5" id="circle3307"/><circle cx="208.8" cy="93.8" r="1.8" id="circle9066"/><circle cx="526.0" cy="142.4" r="2.4" id="circle2320"/><circle cx="686.8" cy="147.4" r="0.8" id="circle7670"/><circle cx="660.8" cy="139.9" r="1.5" id="circle2103"/><circle cx="169.2" cy="138.9" r="1.5" id="circle2730"/><circle cx="274.8" cy="117.5" r="1.8" id="circle1386"/><circle cx="339.8" cy="136.6" r="2.4" id="circle3896"/><circle cx="632.9" cy="144.3" r="1.8" id="circle745"/><circle cx="390.1" cy="79.2" r="1.0" id="circle5562"/><circle cx="670.0" cy="80.1" r="1.8" id="circle9802"/><circle cx="383.4" cy="118.0" r="0.8" id="circle1701"/><circle cx="224.0" cy="123.3" r="0.8" id="circle9584"/><circle cx="337.9" cy="131.3" r="1.0" id="circle9948"/><circle cx="109.1" cy="91.1" r="1.5" id="circle4376"/><circle cx="508.8" cy="110.9" r="1.5" id="circle5871"/><circle cx="437.0" cy="81.3" r="1.2" id="circle9207"/><circle cx="315.6" cy="110.3" r="1.8" id="circle3322"/><circle cx="223.1" cy="85.6" r="1.8" id="circle3887"/><circle cx="491.5" cy="110.1" r="1.0" id="circle7649"/><circle cx="249.8" cy="125.2" r="1.8" id="circle603"/><circle cx="287.9" cy="88.4" r="1.5" id="circle2457"/><circle cx="103.5" cy="129.9" r="1.5" id="circle682"/><circle cx="238.0" cy="93.4" r="1.8" id="circle7957"/><circle cx="239.2" cy="120.9" r="1.8" id="circle8807"/><circle cx="156.1" cy="86.7" r="1.2" id="circle8613"/><circle cx="278.0" cy="136.5" r="2.4" id="circle4216"/><circle cx="514.2" cy="105.5" r="1.5" id="circle4100"/><circle cx="442.9" cy="110.7" r="1.8" id="circle6586"/><circle cx="533.3" cy="108.6" r="1.8" id="circle5749"/><circle cx="370.7" cy="94.6" r="1.8" id="circle5530"/></g><g inkscape:label="stars_w" id="g3254" style="fill:#ffffff"><circle cx="346.3" cy="117.5" r="1.5" id="circle9269"/><circle cx="631.4" cy="91.7" r="1.8" id="circle5008"/><circle cx="460.7" cy="91.4" r="1.5" id="circle9655"/><circle cx="90.2" cy="134.9" r="2.4" id="circle2246"/><circle cx="447.6" cy="106.1" r="1.5" id="circle858"/><circle cx="461.8" cy="89.4" r="0.8" id="circle4171"/><circle cx="70.7" cy="80.9" r="1.0" id="circle4683"/><circle cx="576.9" cy="101.2" r="1.8" id="circle6260"/><circle cx="86.2" cy="124.1" r="1.5" id="circle5960"/><circle cx="730.9" cy="137.1" r="2.4" id="circle7953"/><circle cx="568.5" cy="106.4" r="1.2" id="circle4164"/><circle cx="704.3" cy="137.6" r="0.8" id="circle5780"/><circle cx="682.3" cy="82.1" r="1.5" id="circle5920"/><circle cx="307.4" cy="83.5" r="2.4" id="circle7333"/><circle cx="503.8" cy="101.9" r="1.2" id="circle9369"/><circle cx="526.6" cy="79.2" r="1.5" id="circle3807"/><circle cx="151.8" cy="117.5" r="1.5" id="circle9273"/><circle cx="723.6" cy="132.1" r="1.5" id="circle1186"/><circle cx="637.9" cy="146.4" r="1.8" id="circle8991"/><circle cx="652.5" cy="93.1" r="1.5" id="circle1276"/><circle cx="452.2" cy="118.7" r="0.8" id="circle5845"/><circle cx="177.0" cy="96.5" r="1.8" id="circle7601"/><circle cx="235.8" cy="83.6" r="0.8" id="circle8065"/><circle cx="476.7" cy="79.5" r="1.2" id="circle6756"/><circle cx="346.9" cy="145.4" r="1.5" id="circle4357"/><circle cx="669.2" cy="135.5" r="1.0" id="circle6454"/><circle cx="138.2" cy="122.3" r="1.8" id="circle3645"/><circle cx="59.6" cy="86.0" r="1.8" id="circle3092"/><circle cx="194.8" cy="127.6" r="1.2" id="circle1692"/><circle cx="666.6" cy="112.7" r="1.8" id="circle258"/><circle cx="536.0" cy="83.2" r="1.0" id="circle2604"/><circle cx="488.7" cy="121.4" r="0.8" id="circle1219"/><circle cx="317.3" cy="95.8" r="0.8" id="circle7352"/><circle cx="124.0" cy="109.9" r="1.2" id="circle2234"/><circle cx="515.4" cy="119.2" r="1.0" id="circle1365"/><circle cx="679.9" cy="111.6" r="1.2" id="circle4539"/><circle cx="73.6" cy="100.1" r="1.0" id="circle6994"/><circle cx="688.9" cy="129.9" r="1.0" id="circle4710"/><circle cx="673.8" cy="103.0" r="2.4" id="circle4994"/><circle cx="81.0" cy="138.2" r="0.8" id="circle6542"/><circle cx="431.5" cy="122.0" r="1.5" id="circle8278"/><circle cx="34.8" cy="83.5" r="0.8" id="circle4345"/><circle cx="729.3" cy="139.8" r="2.4" id="circle5974"/><circle cx="687.5" cy="126.9" r="1.5" id="circle1020"/><circle cx="451.7" cy="112.0" r="1.0" id="circle5596"/><circle cx="105.9" cy="132.9" r="2.4" id="circle4521"/><circle cx="459.1" cy="114.6" r="1.2" id="circle5642"/><circle cx="338.9" cy="140.6" r="1.2" id="circle307"/><circle cx="203.4" cy="122.7" r="1.0" id="circle5504"/><circle cx="298.2" cy="119.1" r="1.2" id="circle4078"/><circle cx="121.3" cy="102.9" r="0.8" id="circle4351"/><circle cx="359.7" cy="143.0" r="1.5" id="circle7614"/><circle cx="394.1" cy="125.3" r="2.4" id="circle1114"/><circle cx="721.3" cy="110.0" r="0.8" id="circle4898"/><circle cx="222.9" cy="120.8" r="2.4" id="circle4169"/><circle cx="122.2" cy="110.2" r="0.8" id="circle5373"/><circle cx="214.6" cy="132.8" r="0.8" id="circle6426"/><circle cx="107.6" cy="86.0" r="1.8" id="circle7900"/><circle cx="597.6" cy="145.3" r="2.4" id="circle537"/><circle cx="360.3" cy="128.3" r="1.0" id="circle6157"/><circle cx="577.2" cy="116.1" r="1.8" id="circle9342"/><circle cx="731.7" cy="89.5" r="2.4" id="circle4415"/><circle cx="87.7" cy="143.5" r="2.4" id="circle3505"/><circle cx="345.0" cy="92.2" r="0.8" id="circle8428"/><circle cx="428.7" cy="139.8" r="1.2" id="circle7620"/><circle cx="487.1" cy="92.7" r="2.4" id="circle6847"/><circle cx="591.2" cy="142.9" r="0.8" id="circle2072"/><circle cx="663.2" cy="146.8" r="1.2" id="circle8256"/><circle cx="585.9" cy="100.8" r="2.4" id="circle2383"/><circle cx="272.7" cy="84.2" r="1.5" id="circle4933"/><circle cx="324.4" cy="97.6" r="0.8" id="circle1160"/><circle cx="640.2" cy="108.4" r="0.8" id="circle7423"/><circle cx="263.2" cy="133.4" r="1.0" id="circle6838"/><circle cx="733.9" cy="141.3" r="1.8" id="circle8419"/><circle cx="514.1" cy="144.4" r="1.5" id="circle8556"/><circle cx="513.9" cy="131.3" r="1.5" id="circle9331"/><circle cx="231.4" cy="129.3" r="2.4" id="circle1462"/><circle cx="390.1" cy="141.7" r="1.2" id="circle923"/><circle cx="295.9" cy="137.4" r="1.8" id="circle3242"/><circle cx="628.3" cy="146.0" r="1.8" id="circle1272"/><circle cx="378.3" cy="107.1" r="0.8" id="circle9723"/><circle cx="454.5" cy="80.4" r="0.8" id="circle2294"/><circle cx="92.0" cy="90.1" r="1.8" id="circle3199"/><circle cx="677.9" cy="134.3" r="1.5" id="circle9051"/><circle cx="361.0" cy="87.3" r="1.5" id="circle871"/><circle cx="688.5" cy="142.6" r="1.8" id="circle3105"/><circle cx="34.4" cy="98.3" r="2.4" id="circle9926"/><circle cx="464.8" cy="85.8" r="2.4" id="circle9117"/><circle cx="629.2" cy="121.9" r="2.4" id="circle6159"/><circle cx="401.5" cy="108.9" r="1.5" id="circle2632"/><circle cx="610.2" cy="121.4" r="1.8" id="circle8747"/><circle cx="473.0" cy="123.0" r="1.8" id="circle8684"/><circle cx="410.4" cy="119.4" r="1.0" id="circle5230"/><circle cx="550.5" cy="135.0" r="1.0" id="circle6510"/><circle cx="249.0" cy="142.8" r="1.0" id="circle5457"/><circle cx="88.4" cy="105.5" r="1.5" id="circle1696"/><circle cx="324.5" cy="133.5" r="1.0" id="circle108"/><circle cx="470.6" cy="134.2" r="0.8" id="circle5741"/><circle cx="384.0" cy="131.3" r="1.8" id="circle6591"/><circle cx="52.5" cy="116.9" r="1.8" id="circle1246"/><circle cx="366.7" cy="91.7" r="0.8" id="circle4154"/><circle cx="94.5" cy="105.7" r="1.5" id="circle8962"/><circle cx="330.5" cy="120.4" r="0.8" id="circle9960"/><circle cx="54.9" cy="92.4" r="1.5" id="circle2108"/><circle cx="549.4" cy="106.7" r="1.0" id="circle8764"/><circle cx="93.1" cy="133.7" r="1.2" id="circle2934"/><circle cx="593.6" cy="127.6" r="2.4" id="circle4413"/><circle cx="429.3" cy="91.8" r="1.8" id="circle6805"/><circle cx="595.8" cy="96.5" r="0.8" id="circle984"/><circle cx="259.6" cy="116.0" r="1.2" id="circle1108"/><circle cx="567.8" cy="106.7" r="2.4" id="circle1112"/><circle cx="219.3" cy="145.5" r="1.2" id="circle5448"/><circle cx="390.4" cy="113.2" r="1.0" id="circle5837"/><circle cx="102.5" cy="95.0" r="1.5" id="circle9006"/><circle cx="209.1" cy="97.7" r="1.2" id="circle6318"/><circle cx="385.5" cy="145.9" r="1.8" id="circle8652"/><circle cx="449.1" cy="131.4" r="0.8" id="circle184"/><circle cx="690.5" cy="105.4" r="1.0" id="circle1825"/><circle cx="409.7" cy="120.1" r="1.5" id="circle8081"/><circle cx="323.9" cy="115.2" r="1.8" id="circle6668"/><circle cx="401.5" cy="112.2" r="1.2" id="circle1008"/><circle cx="560.3" cy="105.6" r="1.2" id="circle7328"/><circle cx="667.1" cy="108.4" r="1.5" id="circle2857"/><circle cx="560.9" cy="81.6" r="0.8" id="circle6421"/><circle cx="537.7" cy="111.1" r="1.0" id="circle5254"/><circle cx="339.5" cy="125.0" r="1.5" id="circle5171"/><circle cx="478.8" cy="126.0" r="1.2" id="circle7865"/><circle cx="401.8" cy="148.0" r="1.2" id="circle3034"/><circle cx="194.8" cy="86.4" r="1.2" id="circle7406"/><circle cx="468.5" cy="103.5" r="1.2" id="circle615"/><circle cx="539.4" cy="127.2" r="1.0" id="circle9313"/><circle cx="559.4" cy="91.7" r="1.0" id="circle1218"/><circle cx="87.2" cy="125.6" r="1.8" id="circle8277"/><circle cx="720.9" cy="112.2" r="1.2" id="circle1485"/><circle cx="269.3" cy="130.4" r="0.8" id="circle535"/><circle cx="342.7" cy="135.8" r="1.0" id="circle3337"/><circle cx="555.1" cy="105.7" r="1.0" id="circle2846"/><circle cx="488.8" cy="147.4" r="1.2" id="circle1662"/><circle cx="563.4" cy="136.1" r="1.0" id="circle4653"/><circle cx="84.8" cy="117.8" r="1.5" id="circle5126"/><circle cx="177.0" cy="124.6" r="0.8" id="circle403"/><circle cx="376.3" cy="131.7" r="1.2" id="circle8540"/><circle cx="127.2" cy="103.4" r="2.4" id="circle5020"/><circle cx="667.6" cy="100.9" r="1.5" id="circle6986"/><circle cx="676.3" cy="144.0" r="1.2" id="circle6616"/><circle cx="594.6" cy="99.7" r="1.2" id="circle3577"/><circle cx="711.2" cy="129.4" r="1.8" id="circle1528"/><circle cx="282.1" cy="103.9" r="1.2" id="circle1733"/><circle cx="440.0" cy="134.0" r="2.4" id="circle1818"/><circle cx="590.3" cy="116.2" r="1.8" id="circle8836"/><circle cx="151.0" cy="131.4" r="1.2" id="circle2065"/><circle cx="182.6" cy="82.5" r="1.0" id="circle4395"/><circle cx="413.1" cy="133.4" r="0.8" id="circle5028"/><circle cx="475.0" cy="88.5" r="2.4" id="circle714"/><circle cx="324.8" cy="128.1" r="1.5" id="circle2146"/><circle cx="395.3" cy="131.8" r="1.5" id="circle8590"/><circle cx="597.6" cy="101.7" r="1.0" id="circle6833"/><circle cx="406.4" cy="128.7" r="2.4" id="circle2503"/><circle cx="58.7" cy="131.3" r="2.4" id="circle2710"/><circle cx="28.7" cy="104.8" r="0.8" id="circle2032"/><circle cx="704.1" cy="123.1" r="1.8" id="circle6251"/><circle cx="33.2" cy="86.1" r="1.5" id="circle549"/><circle cx="200.0" cy="89.8" r="2.4" id="circle2221"/><circle cx="144.7" cy="92.7" r="1.5" id="circle1729"/><circle cx="220.0" cy="140.3" r="1.5" id="circle7227"/><circle cx="107.3" cy="123.6" r="1.0" id="circle5987"/><circle cx="559.2" cy="79.6" r="1.5" id="circle8366"/><circle cx="51.8" cy="86.0" r="1.0" id="circle1734"/><circle cx="442.6" cy="120.3" r="1.5" id="circle1977"/><circle cx="184.6" cy="91.3" r="1.2" id="circle898"/><circle cx="670.8" cy="143.8" r="2.4" id="circle246"/><circle cx="604.5" cy="111.9" r="1.2" id="circle6534"/><circle cx="311.1" cy="145.1" r="2.4" id="circle2113"/><circle cx="703.6" cy="112.1" r="1.0" id="circle491"/><circle cx="179.9" cy="87.8" r="1.5" id="circle8154"/><circle cx="588.7" cy="132.4" r="0.8" id="circle4703"/><circle cx="194.2" cy="79.2" r="1.5" id="circle7756"/><circle cx="344.6" cy="95.6" r="1.5" id="circle69"/><circle cx="668.9" cy="134.9" r="1.0" id="circle5218"/><circle cx="430.9" cy="90.9" r="1.0" id="circle8046"/><circle cx="625.1" cy="135.8" r="0.8" id="circle3963"/><circle cx="461.3" cy="115.3" r="1.5" id="circle8455"/><circle cx="84.7" cy="130.7" r="1.8" id="circle2355"/><circle cx="240.9" cy="133.5" r="1.5" id="circle2959"/><circle cx="509.0" cy="133.0" r="1.5" id="circle2969"/><circle cx="410.7" cy="115.1" r="1.0" id="circle144"/><circle cx="78.6" cy="88.2" r="2.4" id="circle375"/><circle cx="352.9" cy="145.9" r="0.8" id="circle1264"/><circle cx="34.7" cy="104.8" r="2.4" id="circle4282"/><circle cx="233.8" cy="86.3" r="0.8" id="circle6572"/><circle cx="470.5" cy="143.8" r="2.4" id="circle5742"/><circle cx="159.6" cy="104.7" r="0.8" id="circle8574"/><circle cx="695.1" cy="117.7" r="2.4" id="circle9447"/><circle cx="92.8" cy="125.7" r="2.4" id="circle4543"/><circle cx="162.8" cy="81.0" r="1.5" id="circle556"/><circle cx="89.8" cy="94.2" r="1.0" id="circle1680"/><circle cx="333.1" cy="132.2" r="1.2" id="circle1305"/><circle cx="328.3" cy="114.1" r="2.4" id="circle7461"/><circle cx="130.8" cy="126.7" r="1.5" id="circle4271"/><circle cx="317.8" cy="79.5" r="1.5" id="circle9725"/><circle cx="250.9" cy="133.5" r="1.0" id="circle5813"/><circle cx="456.9" cy="79.7" r="1.2" id="circle9467"/><circle cx="243.2" cy="109.2" r="1.8" id="circle7521"/><circle cx="386.6" cy="133.5" r="0.8" id="circle9088"/><circle cx="138.1" cy="131.9" r="1.2" id="circle833"/><circle cx="275.6" cy="113.4" r="1.0" id="circle8252"/><circle cx="166.3" cy="143.6" r="2.4" id="circle9521"/><circle cx="688.6" cy="118.0" r="0.8" id="circle5619"/><circle cx="166.1" cy="84.2" r="1.0" id="circle8614"/><circle cx="321.6" cy="101.7" r="0.8" id="circle6991"/><circle cx="281.7" cy="110.7" r="0.8" id="circle3452"/><circle cx="542.7" cy="95.1" r="1.8" id="circle9665"/><circle cx="423.0" cy="117.5" r="1.2" id="circle4350"/><circle cx="554.0" cy="141.0" r="1.2" id="circle6022"/><circle cx="112.8" cy="136.0" r="1.2" id="circle325"/><circle cx="283.5" cy="131.3" r="1.2" id="circle2253"/><circle cx="157.4" cy="116.7" r="0.8" id="circle713"/><circle cx="561.3" cy="137.6" r="1.5" id="circle8525"/><circle cx="479.3" cy="131.7" r="1.0" id="circle2748"/><circle cx="313.3" cy="101.9" r="1.0" id="circle8834"/><circle cx="428.2" cy="101.6" r="2.4" id="circle658"/><circle cx="536.9" cy="133.4" r="1.5" id="circle4310"/><circle cx="450.9" cy="111.2" r="1.5" id="circle698"/><circle cx="672.4" cy="117.8" r="1.5" id="circle3295"/><circle cx="369.9" cy="147.8" r="2.4" id="circle4876"/><circle cx="333.2" cy="117.9" r="1.8" id="circle6776"/><circle cx="394.6" cy="107.8" r="0.8" id="circle5116"/><circle cx="64.7" cy="129.1" r="1.5" id="circle2002"/><circle cx="449.0" cy="130.9" r="1.2" id="circle552"/><circle cx="647.0" cy="95.5" r="1.5" id="circle1101"/><circle cx="644.1" cy="146.3" r="1.5" id="circle4489"/><circle cx="398.6" cy="95.1" r="1.2" id="circle9506"/><circle cx="691.7" cy="139.8" r="2.4" id="circle2563"/><circle cx="497.3" cy="138.9" r="1.5" id="circle8064"/><circle cx="142.2" cy="123.8" r="1.5" id="circle202"/><circle cx="406.6" cy="144.8" r="0.8" id="circle6076"/><circle cx="575.9" cy="132.6" r="1.0" id="circle8009"/><circle cx="634.2" cy="126.8" r="0.8" id="circle8408"/><circle cx="475.8" cy="127.1" r="1.8" id="circle2213"/><circle cx="473.7" cy="91.8" r="0.8" id="circle9819"/><circle cx="242.7" cy="135.5" r="1.2" id="circle9011"/><circle cx="530.9" cy="87.9" r="2.4" id="circle9531"/><circle cx="577.5" cy="107.4" r="1.0" id="circle132"/><circle cx="243.5" cy="128.0" r="1.0" id="circle373"/><circle cx="535.9" cy="113.4" r="1.2" id="circle1348"/><circle cx="289.7" cy="124.6" r="0.8" id="circle666"/><circle cx="188.1" cy="99.4" r="1.0" id="circle820"/><circle cx="222.0" cy="123.1" r="0.8" id="circle8685"/><circle cx="80.0" cy="142.4" r="0.8" id="circle8648"/><circle cx="58.1" cy="120.3" r="1.2" id="circle5746"/><circle cx="325.8" cy="118.1" r="1.0" id="circle4013"/><circle cx="561.0" cy="95.6" r="1.2" id="circle8792"/><circle cx="46.4" cy="133.6" r="1.0" id="circle6964"/><circle cx="49.8" cy="110.6" r="1.8" id="circle8489"/><circle cx="576.0" cy="141.9" r="1.2" id="circle940"/><circle cx="580.4" cy="114.5" r="1.8" id="circle3320"/><circle cx="475.4" cy="147.0" r="2.4" id="circle8900"/><circle cx="334.4" cy="125.1" r="1.8" id="circle4977"/><circle cx="582.9" cy="133.6" r="1.0" id="circle9975"/><circle cx="411.3" cy="137.9" r="1.8" id="circle2510"/><circle cx="38.6" cy="113.1" r="1.5" id="circle5002"/><circle cx="668.4" cy="118.1" r="1.8" id="circle4838"/><circle cx="537.3" cy="121.9" r="0.8" id="circle7195"/><circle cx="56.0" cy="100.4" r="1.8" id="circle287"/><circle cx="607.0" cy="90.4" r="1.2" id="circle8512"/><circle cx="377.8" cy="124.4" r="1.8" id="circle370"/><circle cx="69.3" cy="107.1" r="1.2" id="circle5148"/><circle cx="524.3" cy="145.2" r="1.0" id="circle7847"/><circle cx="565.0" cy="147.2" r="1.0" id="circle7139"/><circle cx="395.4" cy="147.2" r="0.8" id="circle9323"/><circle cx="656.2" cy="88.3" r="1.5" id="circle6052"/><circle cx="360.1" cy="143.7" r="0.8" id="circle9422"/><circle cx="533.6" cy="146.5" r="1.8" id="circle6290"/><circle cx="205.3" cy="116.9" r="1.0" id="circle2836"/><circle cx="86.9" cy="94.3" r="1.2" id="circle7292"/><circle cx="720.7" cy="121.1" r="0.8" id="circle3851"/><circle cx="440.3" cy="147.8" r="2.4" id="circle7444"/><circle cx="517.8" cy="138.7" r="1.8" id="circle1598"/><circle cx="151.5" cy="138.4" r="1.0" id="circle8296"/><circle cx="579.2" cy="93.5" r="1.2" id="circle8490"/><circle cx="587.6" cy="134.5" r="1.5" id="circle7567"/><circle cx="177.8" cy="111.1" r="1.2" id="circle8630"/><circle cx="373.1" cy="122.2" r="1.0" id="circle9398"/><circle cx="154.9" cy="96.7" r="1.5" id="circle2033"/><circle cx="485.8" cy="93.6" r="0.8" id="circle5623"/><circle cx="254.0" cy="105.3" r="0.8" id="circle5660"/><circle cx="296.0" cy="96.3" r="1.8" id="circle3426"/><circle cx="132.8" cy="120.0" r="0.8" id="circle2346"/><circle cx="526.3" cy="96.6" r="2.4" id="circle4328"/><circle cx="292.9" cy="139.8" r="1.2" id="circle3960"/><circle cx="344.2" cy="88.0" r="1.8" id="circle8495"/><circle cx="186.0" cy="98.8" r="1.2" id="circle8092"/><circle cx="125.3" cy="137.6" r="2.4" id="circle7097"/><circle cx="426.7" cy="134.9" r="2.4" id="circle1889"/><circle cx="500.7" cy="142.6" r="1.0" id="circle7969"/><circle cx="276.2" cy="87.0" r="1.2" id="circle9967"/><circle cx="375.0" cy="112.6" r="1.2" id="circle9984"/><circle cx="524.0" cy="93.9" r="1.5" id="circle8359"/><circle cx="570.0" cy="102.9" r="2.4" id="circle5442"/><circle cx="91.9" cy="102.3" r="1.5" id="circle7046"/><circle cx="364.6" cy="96.4" r="1.8" id="circle2810"/><circle cx="673.5" cy="141.4" r="0.8" id="circle6671"/><circle cx="70.6" cy="106.7" r="0.8" id="circle7641"/><circle cx="625.5" cy="99.4" r="2.4" id="circle8723"/><circle cx="205.4" cy="80.1" r="1.2" id="circle2034"/><circle cx="290.3" cy="99.2" r="2.4" id="circle7694"/><circle cx="480.8" cy="105.3" r="1.2" id="circle9925"/><circle cx="282.7" cy="118.6" r="1.0" id="circle6162"/><circle cx="470.2" cy="121.8" r="1.5" id="circle275"/><circle cx="71.0" cy="83.2" r="1.5" id="circle6039"/><circle cx="296.4" cy="141.9" r="0.8" id="circle3603"/><circle cx="509.9" cy="97.5" r="1.5" id="circle1081"/><circle cx="717.7" cy="88.9" r="1.0" id="circle9656"/><circle cx="411.0" cy="105.9" r="1.0" id="circle4287"/><circle cx="627.1" cy="131.8" r="0.8" id="circle8936"/><circle cx="423.0" cy="136.4" r="1.2" id="circle9501"/><circle cx="99.6" cy="79.8" r="2.4" id="circle3719"/><circle cx="306.5" cy="89.4" r="1.0" id="circle265"/><circle cx="138.9" cy="121.8" r="1.5" id="circle8045"/><circle cx="233.9" cy="107.4" r="1.2" id="circle7666"/><circle cx="404.1" cy="95.0" r="1.0" id="circle1258"/><circle cx="70.8" cy="83.2" r="0.8" id="circle6904"/><circle cx="245.6" cy="137.7" r="1.8" id="circle909"/><circle cx="366.3" cy="89.8" r="1.5" id="circle6486"/><circle cx="63.8" cy="96.2" r="1.8" id="circle562"/><circle cx="517.2" cy="96.1" r="2.4" id="circle8464"/><circle cx="532.7" cy="101.2" r="1.2" id="circle3610"/><circle cx="171.0" cy="117.8" r="1.0" id="circle9004"/><circle cx="323.8" cy="127.8" r="1.8" id="circle5175"/><circle cx="216.4" cy="89.7" r="1.0" id="circle8509"/><circle cx="499.9" cy="94.6" r="1.0" id="circle2085"/><circle cx="360.1" cy="126.8" r="1.0" id="circle3244"/><circle cx="217.9" cy="96.0" r="2.4" id="circle5018"/><circle cx="732.1" cy="139.2" r="1.0" id="circle1317"/><circle cx="543.7" cy="147.8" r="0.8" id="circle3140"/><circle cx="666.6" cy="136.5" r="1.5" id="circle2354"/><circle cx="73.7" cy="109.1" r="2.4" id="circle1215"/><circle cx="303.3" cy="121.5" r="1.0" id="circle8667"/><circle cx="301.7" cy="126.9" r="1.8" id="circle7820"/><circle cx="639.6" cy="109.3" r="0.8" id="circle8797"/><circle cx="255.1" cy="79.8" r="1.8" id="circle4865"/><circle cx="219.8" cy="106.4" r="1.2" id="circle4610"/><circle cx="367.4" cy="104.0" r="1.2" id="circle4958"/><circle cx="133.3" cy="78.9" r="1.2" id="circle2345"/><circle cx="28.8" cy="101.9" r="1.0" id="circle3843"/><circle cx="415.8" cy="124.3" r="1.8" id="circle9629"/><circle cx="159.5" cy="98.7" r="1.0" id="circle8119"/><circle cx="78.9" cy="103.5" r="1.8" id="circle4735"/><circle cx="284.1" cy="131.9" r="1.2" id="circle1886"/><circle cx="586.9" cy="129.7" r="1.5" id="circle7272"/><circle cx="402.2" cy="124.9" r="0.8" id="circle8880"/><circle cx="367.3" cy="137.0" r="1.5" id="circle4932"/><circle cx="255.1" cy="129.0" r="1.8" id="circle961"/><circle cx="600.0" cy="103.9" r="2.4" id="circle675"/><circle cx="247.0" cy="83.1" r="2.4" id="circle7943"/><circle cx="92.7" cy="101.8" r="2.4" id="circle3950"/><circle cx="59.2" cy="87.6" r="1.2" id="circle3097"/><circle cx="151.5" cy="85.8" r="1.0" id="circle5293"/><circle cx="155.1" cy="80.0" r="1.5" id="circle9839"/><circle cx="311.6" cy="100.9" r="1.8" id="circle2797"/><circle cx="565.1" cy="79.9" r="1.0" id="circle2279"/><circle cx="559.9" cy="86.0" r="1.2" id="circle9015"/><circle cx="707.6" cy="93.8" r="1.5" id="circle8214"/><circle cx="654.5" cy="135.1" r="0.8" id="circle6009"/><circle cx="697.0" cy="100.9" r="1.0" id="circle4808"/><circle cx="397.8" cy="79.1" r="2.4" id="circle8342"/><circle cx="293.7" cy="123.4" r="1.0" id="circle4555"/><circle cx="270.0" cy="109.1" r="2.4" id="circle605"/><circle cx="549.0" cy="130.4" r="1.5" id="circle8275"/><circle cx="322.9" cy="105.3" r="1.0" id="circle3249"/><circle cx="409.1" cy="81.4" r="0.8" id="circle7398"/><circle cx="345.8" cy="98.3" r="0.8" id="circle5995"/><circle cx="685.6" cy="89.0" r="1.5" id="circle2734"/><circle cx="207.2" cy="121.9" r="1.0" id="circle8350"/><circle cx="726.5" cy="106.5" r="1.0" id="circle5518"/><circle cx="661.3" cy="86.2" r="1.0" id="circle5274"/><circle cx="485.7" cy="143.9" r="0.8" id="circle3586"/><circle cx="388.2" cy="147.8" r="0.8" id="circle6915"/><circle cx="53.1" cy="102.3" r="1.8" id="circle7005"/><circle cx="347.5" cy="115.9" r="1.5" id="circle1510"/><circle cx="377.6" cy="82.3" r="1.8" id="circle2891"/><circle cx="72.5" cy="144.1" r="1.2" id="circle679"/><circle cx="262.3" cy="143.2" r="1.0" id="circle7055"/><circle cx="725.4" cy="92.9" r="2.4" id="circle9120"/><circle cx="703.6" cy="146.1" r="1.8" id="circle559"/><circle cx="331.0" cy="79.5" r="1.2" id="circle4635"/><circle cx="624.0" cy="144.4" r="2.4" id="circle6543"/><circle cx="518.0" cy="91.0" r="1.0" id="circle1745"/><circle cx="692.2" cy="121.0" r="1.2" id="circle4502"/><circle cx="31.7" cy="83.3" r="1.0" id="circle4218"/><circle cx="281.1" cy="100.1" r="1.5" id="circle3676"/><circle cx="76.6" cy="97.0" r="1.2" id="circle4747"/><circle cx="93.3" cy="114.3" r="1.5" id="circle8406"/><circle cx="436.1" cy="98.3" r="1.2" id="circle2256"/><circle cx="81.3" cy="123.7" r="1.0" id="circle6138"/><circle cx="300.4" cy="130.3" r="1.8" id="circle4919"/><circle cx="478.9" cy="104.0" r="1.2" id="circle1822"/><circle cx="338.2" cy="145.0" r="1.2" id="circle7419"/><circle cx="35.0" cy="121.0" r="0.8" id="circle887"/><circle cx="119.6" cy="140.9" r="1.2" id="circle356"/><circle cx="283.4" cy="104.6" r="2.4" id="circle5653"/><circle cx="519.7" cy="147.5" r="0.8" id="circle1321"/><circle cx="136.2" cy="83.5" r="1.0" id="circle4716"/><circle cx="183.4" cy="79.9" r="1.5" id="circle3084"/><circle cx="188.8" cy="116.2" r="0.8" id="circle4243"/><circle cx="73.1" cy="110.7" r="1.5" id="circle9540"/><circle cx="685.9" cy="114.6" r="1.8" id="circle5924"/><circle cx="588.6" cy="78.7" r="2.4" id="circle1593"/><circle cx="582.7" cy="141.7" r="2.4" id="circle9096"/><circle cx="543.5" cy="132.6" r="0.8" id="circle2833"/><circle cx="136.3" cy="104.3" r="1.2" id="circle9189"/><circle cx="660.2" cy="80.1" r="1.2" id="circle3799"/><circle cx="423.2" cy="146.4" r="0.8" id="circle527"/><circle cx="385.2" cy="87.1" r="1.8" id="circle6396"/><circle cx="495.2" cy="114.0" r="1.2" id="circle9638"/><circle cx="576.5" cy="95.7" r="1.5" id="circle707"/><circle cx="726.8" cy="119.5" r="1.0" id="circle35"/><circle cx="351.2" cy="137.8" r="0.8" id="circle381"/><circle cx="382.7" cy="88.5" r="1.8" id="circle8107"/><circle cx="313.8" cy="121.1" r="2.4" id="circle5053"/><circle cx="318.7" cy="79.2" r="1.0" id="circle1049"/><circle cx="402.0" cy="80.4" r="0.8" id="circle2240"/><circle cx="671.8" cy="116.3" r="0.8" id="circle6114"/><circle cx="676.5" cy="101.4" r="1.5" id="circle7676"/><circle cx="729.2" cy="117.5" r="1.0" id="circle7901"/><circle cx="380.7" cy="141.5" r="1.5" id="circle3089"/><circle cx="215.3" cy="120.3" r="1.0" id="circle541"/><circle cx="329.9" cy="111.7" r="1.2" id="circle6779"/><circle cx="262.4" cy="86.6" r="1.2" id="circle7171"/><circle cx="69.7" cy="115.3" r="1.8" id="circle6295"/><circle cx="605.6" cy="125.5" r="2.4" id="circle709"/><circle cx="248.6" cy="112.2" r="1.0" id="circle8018"/><circle cx="399.0" cy="129.6" r="1.2" id="circle2941"/><circle cx="710.1" cy="78.9" r="1.8" id="circle5462"/><circle cx="200.4" cy="145.6" r="2.4" id="circle2898"/><circle cx="91.7" cy="96.0" r="1.2" id="circle6111"/><circle cx="694.2" cy="123.6" r="1.2" id="circle9407"/><circle cx="228.3" cy="125.9" r="0.8" id="circle653"/><circle cx="185.5" cy="95.9" r="0.8" id="circle4303"/><circle cx="606.1" cy="133.4" r="2.4" id="circle9758"/><circle cx="733.8" cy="112.6" r="1.5" id="circle8640"/><circle cx="416.9" cy="143.1" r="2.4" id="circle5775"/><circle cx="462.8" cy="126.1" r="1.0" id="circle3666"/><circle cx="30.0" cy="129.8" r="1.5" id="circle9773"/><circle cx="468.8" cy="142.2" r="0.8" id="circle4737"/><circle cx="85.1" cy="126.3" r="1.0" id="circle9450"/><circle cx="343.0" cy="108.9" r="0.8" id="circle6722"/><circle cx="661.3" cy="129.2" r="0.8" id="circle7898"/><circle cx="109.8" cy="100.1" r="2.4" id="circle9705"/><circle cx="679.0" cy="93.2" r="1.5" id="circle1195"/><circle cx="125.1" cy="144.5" r="1.0" id="circle6316"/><circle cx="360.5" cy="80.6" r="1.5" id="circle8517"/><circle cx="167.8" cy="127.5" r="1.5" id="circle236"/><circle cx="551.6" cy="90.1" r="1.8" id="circle8284"/><circle cx="36.4" cy="135.9" r="2.4" id="circle5477"/><circle cx="444.7" cy="114.7" r="1.5" id="circle8401"/><circle cx="524.3" cy="106.1" r="0.8" id="circle6310"/><circle cx="191.4" cy="96.7" r="2.4" id="circle6719"/><circle cx="57.9" cy="142.7" r="1.2" id="circle3336"/><circle cx="153.2" cy="107.3" r="1.8" id="circle3323"/><path d="M 120 100.8 Q 120.512 103.488 123.2 104 Q 120.512 104.512 120 107.2 Q 119.488 104.512 116.8 104 Q 119.488 103.488 120 100.8 Z" id="path6762" style="fill:#ffffff"/><path d="M 205 97.6 Q 205.384 99.616 207.4 100 Q 205.384 100.384 205 102.4 Q 204.616 100.384 202.6 100 Q 204.616 99.616 205 97.6 Z" id="path8776" style="fill:#ffffff"/><path d="M 345 117 Q 345.48 119.52 348 120 Q 345.48 120.48 345 123 Q 344.52 120.48 342 120 Q 344.52 119.52 345 117 Z" id="path879" style="fill:#ffffff"/><path d="M 500 107.4 Q 500.416 109.584 502.6 110 Q 500.416 110.416 500 112.6 Q 499.584 110.416 497.4 110 Q 499.584 109.584 500 107.4 Z" id="path4656" style="fill:#ffffff"/><path d="M 560 125.8 Q 560.352 127.648 562.2 128 Q 560.352 128.352 560 130.2 Q 559.648 128.352 557.8 128 Q 559.648 127.648 560 125.8 Z" id="path8115" style="fill:#ffffff"/><path d="M 665 125 Q 665.48 127.52 668 128 Q 665.48 128.48 665 131 Q 664.52 128.48 662 128 Q 664.52 127.52 665 125 Z" id="path7578" style="fill:#ffffff"/></g></g><rect x="280.0" y="15.0" width="150.0" height="195.0" id="rect399" inkscape:label="veil" style="fill:#ffffff;opacity:0.72" clip-path="url(#clipPath6236)"/><rect x="20.0" y="70.0" width="720.0" height="92.0" id="rect4668" inkscape:label="glyphSheen" style="fill:url(#linearGradient7296)" clip-path="url(#clipPath6236)"/></g><g inkscape:label="paint2" id="g9337" style="filter:url(#filter8543)"><path d="M 31.79 186.49 L 38.86 187.42 L 47.66 188.65 L 57.96 190.11 L 69.53 191.76 L 82.12 193.53 L 95.51 195.38 L 109.46 197.25 L 123.75 199.09 L 138.13 200.83 L 152.39 202.44 L 166.29 203.84 L 179.57 204.99 L 192.57 205.95 L 205.74 206.84 L 219.09 207.64 L 232.56 208.35 L 246.11 208.97 L 259.72 209.5 L 273.34 209.93 L 286.94 210.26 L 300.47 210.48 L 313.91 210.6 L 327.2 210.61 L 340.35 210.5 L 353.42 210.21 L 366.49 209.73 L 379.49 209.07 L 392.41 208.28 L 405.22 207.39 L 417.93 206.43 L 430.49 205.43 L 442.91 204.42 L 455.14 203.44 L 467.19 202.52 L 479.03 201.69 L 490.69 200.98 L 502.36 200.32 L 514.13 199.64 L 525.89 198.96 L 537.57 198.28 L 549.11 197.63 L 560.43 197.02 L 571.46 196.47 L 582.13 195.98 L 592.37 195.57 L 602.11 195.26 L 611.27 195.07 L 619.75 195 L 627.66 195.09 L 635.2 195.35 L 642.39 195.75 L 649.21 196.27 L 655.65 196.87 L 661.69 197.52 L 667.32 198.2 L 672.52 198.87 L 677.28 199.51 L 681.61 200.09 L 685.5 200.58 L 688.81 200.92 A 9 9 0 0 0 691.19 183.08 L 688.11 182.57 L 684.55 181.89 L 680.37 181.05 L 675.63 180.09 L 670.35 179.05 L 664.56 177.98 L 658.28 176.91 L 651.53 175.88 L 644.33 174.94 L 636.7 174.11 L 628.66 173.46 L 620.25 173 L 611.39 172.72 L 601.97 172.54 L 592.01 172.46 L 581.58 172.47 L 570.74 172.56 L 559.57 172.73 L 548.14 172.97 L 536.5 173.27 L 524.74 173.63 L 512.91 174.05 L 501.09 174.51 L 489.31 175.02 L 477.43 175.63 L 465.35 176.39 L 453.14 177.28 L 440.8 178.25 L 428.36 179.27 L 415.82 180.32 L 403.22 181.37 L 390.56 182.38 L 377.86 183.33 L 365.13 184.19 L 352.4 184.92 L 339.65 185.5 L 326.75 185.96 L 313.64 186.35 L 300.37 186.67 L 286.99 186.93 L 273.53 187.12 L 260.03 187.25 L 246.53 187.33 L 233.07 187.36 L 219.69 187.33 L 206.43 187.27 L 193.32 187.16 L 180.43 187.01 L 167.27 186.78 L 153.46 186.44 L 139.24 186.01 L 124.85 185.5 L 110.52 184.95 L 96.49 184.37 L 83.02 183.78 L 70.33 183.2 L 58.66 182.67 L 48.26 182.19 L 39.36 181.8 L 32.21 181.51 A 2.5 2.5 0 0 0 31.79 186.49 Z" id="path9023" inkscape:label="swoosh3" style="fill:url(#linearGradient1374);paint-order:stroke;stroke:#b9d2f5;stroke-linejoin:round;stroke-width:3.0"/><g inkscape:label="brush3" id="g5850" transform="matrix(0.5 -0.866025 0.866025 0.5 690 192)"><path d="M 0 0 C 14 -11 30 -12 42 -10 L 44 10 C 30 12 14 11 0 0 Z" id="path1697" inkscape:label="bristles3" style="fill:url(#linearGradient1374);stroke:#15275a;stroke-linejoin:round;stroke-width:1.4"/><path d="M 42 -10 L 66 -10 L 66 10 L 42 10 Z" id="path1920" inkscape:label="ferrule3" style="fill:#bfc7d2;stroke:#15275a;stroke-linejoin:round;stroke-width:1.4"/><path d="M 52 -10 L 56 -10 L 56 10 L 52 10 Z" id="path6424" inkscape:label="ferruleband3" style="fill:#8b94a1"/><path d="M 66 -9 L 104 -5 C 116 -3 118 0 118 0 C 118 0 116 3 104 5 L 66 9 Z" id="path8994" inkscape:label="handle3" style="fill:url(#linearGradient8317);stroke:#15275a;stroke-linejoin:round;stroke-width:1.4"/><path d="M 43 -9 L 65 -9 L 65 -4.5 L 43 -4.5 Z" id="path569" inkscape:label="ferruleHi" style="fill:#eef2f7;fill-opacity:0.85"/><path d="M 43 5 L 65 5 L 65 9 L 43 9 Z" id="path9077" inkscape:label="ferruleShade" style="fill:#6c7682;fill-opacity:0.6"/><path d="M 68 -5.5 C 88 -3.7 104 -2.5 113 -1.2" id="path4292" inkscape:label="handleHi" style="fill:none;stroke:#f0d3a6;stroke-linecap:round;stroke-opacity:0.7;stroke-width:1.6"/><path d="M 8 -3 L 40 -7" id="path8100" inkscape:label="bristleHair1" style="fill:none;stroke:#16306e;stroke-opacity:0.5;stroke-width:0.8"/><path d="M 8 0 L 41 -1" id="path6842" inkscape:label="bristleHair2" style="fill:none;stroke:#16306e;stroke-opacity:0.4;stroke-width:0.8"/><path d="M 8 3 L 40 7" id="path2341" inkscape:label="bristleHair3" style="fill:none;stroke:#16306e;stroke-opacity:0.5;stroke-width:0.8"/></g><g inkscape:label="swooshStars3b" id="g8512" clip-path="url(#clipPath6858)"><circle cx="38.0" cy="186.0" r="1.0" id="circle1565" style="fill:#ffffff"/><circle cx="52.0" cy="200.0" r="1.5" id="circle1027" style="fill:#fb923c"/><circle cx="66.0" cy="190.0" r="0.9" id="circle5386" style="fill:#ffffff"/><circle cx="80.0" cy="196.0" r="1.2" id="circle7366" style="fill:#ffffff"/><circle cx="94.0" cy="204.0" r="0.8" id="circle7475" style="fill:#ffffff"/><circle cx="108.0" cy="188.0" r="1.8" id="circle7796" style="fill:#fb923c"/><circle cx="122.0" cy="198.0" r="1.0" id="circle5500" style="fill:#ffffff"/><circle cx="136.0" cy="192.0" r="1.3" id="circle641" style="fill:#ffffff"/><circle cx="150.0" cy="206.0" r="0.9" id="circle1506" style="fill:#ffffff"/><circle cx="164.0" cy="194.0" r="1.6" id="circle6974" style="fill:#fb923c"/><circle cx="178.0" cy="200.0" r="1.1" id="circle8832" style="fill:#ffffff"/><circle cx="192.0" cy="190.0" r="0.8" id="circle7659" style="fill:#ffffff"/><circle cx="206.0" cy="202.0" r="2.0" id="circle7657" style="fill:#ffffff"/><circle cx="220.0" cy="196.0" r="1.0" id="circle4026" style="fill:#fb923c"/><circle cx="234.0" cy="192.0" r="1.2" id="circle9792" style="fill:#ffffff"/><circle cx="248.0" cy="204.0" r="0.9" id="circle2220" style="fill:#ffffff"/><circle cx="262.0" cy="197.0" r="1.5" id="circle3461" style="fill:#ffffff"/><circle cx="276.0" cy="200.0" r="0.8" id="circle1629" style="fill:#fb923c"/><circle cx="290.0" cy="194.0" r="1.8" id="circle4920" style="fill:#ffffff"/><circle cx="304.0" cy="199.0" r="1.0" id="circle1908" style="fill:#ffffff"/><circle cx="318.0" cy="191.0" r="1.3" id="circle6221" style="fill:#ffffff"/><circle cx="332.0" cy="203.0" r="0.9" id="circle8027" style="fill:#fb923c"/><circle cx="346.0" cy="196.0" r="1.6" id="circle5473" style="fill:#ffffff"/><circle cx="360.0" cy="200.0" r="1.1" id="circle9024" style="fill:#ffffff"/><circle cx="374.0" cy="188.0" r="0.8" id="circle3932" style="fill:#ffffff"/><circle cx="388.0" cy="197.0" r="2.0" id="circle9699" style="fill:#fb923c"/><circle cx="402.0" cy="192.0" r="1.0" id="circle9939" style="fill:#ffffff"/><circle cx="416.0" cy="199.0" r="1.2" id="circle8212" style="fill:#ffffff"/><circle cx="430.0" cy="186.0" r="0.9" id="circle6944" style="fill:#ffffff"/><circle cx="444.0" cy="194.0" r="1.5" id="circle5237" style="fill:#fb923c"/><circle cx="458.0" cy="190.0" r="0.8" id="circle1686" style="fill:#ffffff"/><circle cx="472.0" cy="197.0" r="1.8" id="circle2675" style="fill:#ffffff"/><circle cx="486.0" cy="184.0" r="1.0" id="circle7302" style="fill:#ffffff"/><circle cx="500.0" cy="192.0" r="1.3" id="circle5352" style="fill:#fb923c"/><circle cx="514.0" cy="188.0" r="0.9" id="circle1241" style="fill:#ffffff"/><circle cx="528.0" cy="195.0" r="1.6" id="circle1907" style="fill:#ffffff"/><circle cx="542.0" cy="182.0" r="1.1" id="circle7088" style="fill:#ffffff"/><circle cx="556.0" cy="190.0" r="0.8" id="circle1736" style="fill:#fb923c"/><circle cx="570.0" cy="186.0" r="2.0" id="circle4419" style="fill:#ffffff"/><circle cx="584.0" cy="192.0" r="1.0" id="circle3831" style="fill:#ffffff"/><circle cx="598.0" cy="181.0" r="1.2" id="circle4383" style="fill:#ffffff"/><circle cx="612.0" cy="188.0" r="0.9" id="circle7048" style="fill:#fb923c"/><circle cx="626.0" cy="184.0" r="1.5" id="circle7857" style="fill:#ffffff"/><circle cx="640.0" cy="191.0" r="0.8" id="circle3921" style="fill:#ffffff"/><circle cx="654.0" cy="186.0" r="1.3" id="circle9873" style="fill:#ffffff"/><circle cx="668.0" cy="192.0" r="1.0" id="circle3473" style="fill:#fb923c"/><circle cx="682.0" cy="189.0" r="1.1" id="circle5768" style="fill:#ffffff"/><circle cx="45.0" cy="192.0" r="0.8" id="circle3589" style="fill:#ffffff"/><circle cx="115.0" cy="202.0" r="1.1" id="circle4246" style="fill:#ffffff"/><circle cx="185.0" cy="206.0" r="0.9" id="circle9745" style="fill:#fb923c"/><circle cx="255.0" cy="191.0" r="1.2" id="circle6230" style="fill:#ffffff"/><circle cx="325.0" cy="197.0" r="0.8" id="circle1238" style="fill:#ffffff"/><circle cx="395.0" cy="203.0" r="1.0" id="circle5097" style="fill:#ffffff"/><circle cx="465.0" cy="184.0" r="0.9" id="circle2016" style="fill:#fb923c"/><circle cx="535.0" cy="200.0" r="1.1" id="circle6193" style="fill:#ffffff"/><circle cx="605.0" cy="193.0" r="0.8" id="circle2411" style="fill:#ffffff"/><circle cx="661.0" cy="181.0" r="1.0" id="circle1831" style="fill:#ffffff"/><path d="M 150 191.4 Q 150.416 193.584 152.6 194 Q 150.416 194.416 150 196.6 Q 149.584 194.416 147.4 194 Q 149.584 193.584 150 191.4 Z" id="path386" style="fill:#ffffff"/><path d="M 360 193.8 Q 360.352 195.648 362.2 196 Q 360.352 196.352 360 198.2 Q 359.648 196.352 357.8 196 Q 359.648 195.648 360 193.8 Z" id="path4463" style="fill:#ffffff"/><path d="M 470 186.4 Q 470.416 188.584 472.6 189 Q 470.416 189.416 470 191.6 Q 469.584 189.416 467.4 189 Q 469.584 188.584 470 186.4 Z" id="path2280" style="fill:#ffffff"/><path d="M 610 181.8 Q 610.352 183.648 612.2 184 Q 610.352 184.352 610 186.2 Q 609.648 184.352 607.8 184 Q 609.648 183.648 610 181.8 Z" id="path1301" style="fill:#ffffff"/></g></g></svg>